<svg width="20" height="22" viewBox="0 0 20 22" version="1.1" xmlns="http://www.w3.org/2000/svg" xmlns:xlink="http://www.w3.org/1999/xlink">
  <title>Vector</title>
  <desc>Created using Figma</desc>
  <g id="Canvas" transform="translate(-617 -89)">
    <g id="Vector">
      <use xlink:href="#path0_stroke" transform="translate(618 90)" fill="#676767"/>
    </g>
  </g>
  <defs>
    <path id="path0_stroke" d="M 11.1635 6.94154L 11.8114 7.56626L 11.1635 6.94154ZM 6.69891 14.8176L 6.02213 15.4109L 6.69891 14.8176ZM 17.8408 0.0169414L 18.4887 0.641663L 17.8408 0.0169414ZM 11.1432 19.8874L 10.4664 20.4807L 11.1432 19.8874ZM 6.69363 6.94154L 7.34149 6.31682L 6.69363 6.94154ZM 0.0235347 0.9L 17.8336 0.9L 17.8336 -0.9L 0.0235347 -0.9L 0.0235347 0.9ZM 17.1929 -0.607781L 10.5157 6.31682L 11.8114 7.56626L 18.4887 0.641663L 17.1929 -0.607781ZM 10.2607 6.94848L 10.2607 19.8808L 12.0607 19.8808L 12.0607 6.94848L 10.2607 6.94848ZM 11.82 19.2941L 7.37568 14.2244L 6.02213 15.4109L 10.4664 20.4807L 11.82 19.2941ZM 7.59643 14.8111L 7.59643 6.94848L 5.79643 6.94848L 5.79643 14.8111L 7.59643 14.8111ZM 7.34149 6.31682L 0.664196 -0.607781L -0.631524 0.641663L 6.04577 7.56626L 7.34149 6.31682ZM 0.0235347 -0.9C -0.779236 -0.9 -1.18876 0.0637933 -0.631524 0.641663L 0.664196 -0.607781C 1.20918 -0.042611 0.808662 0.9 0.0235347 0.9L 0.0235347 -0.9ZM 17.8336 0.9C 17.0485 0.9 16.648 -0.042611 17.1929 -0.607781L 18.4887 0.641663C 19.0459 0.0637933 18.6364 -0.9 17.8336 -0.9L 17.8336 0.9ZM 10.5157 6.31682C 10.3521 6.48643 10.2607 6.71286 10.2607 6.94848L 12.0607 6.94848C 12.0607 7.17892 11.9713 7.40038 11.8114 7.56626L 10.5157 6.31682ZM 10.2607 19.8808C 10.2607 19.0594 11.2785 18.6765 11.82 19.2941L 10.4664 20.4807C 11.02 21.1122 12.0607 20.7207 12.0607 19.8808L 10.2607 19.8808ZM 7.37568 14.2244C 7.51798 14.3867 7.59643 14.5952 7.59643 14.8111L 5.79643 14.8111C 5.81096 14.9745 5.92529 15.2784 6.02213 15.4109L 7.37568 14.2244ZM 7.59643 6.94848C 7.59643 6.71286 7.50504 6.48643 7.34149 6.31682L 6.04577 7.56626C 5.88581 7.40038 5.79643 7.17892 5.79643 6.94848L 7.59643 6.94848Z"/>
  </defs>
</svg>
